# xmcd
#
# Track frame offsets: 
#        150
#        21438
#        39914
#        62701
#        91673
#        108976
#        129248
#        149315
#        173968
#        192245
#
# Disc length: 2844 seconds
#
# Revision: 0
# Processed by: cddbd v1.5.2PL0 Copyright (c) Steve Scherf et al.
# Submitted via: ExactAudioCopy v0.99pb4
#
DISCID=7f0b1a0a
DTITLE=Fito and Fitipaldis - Antes De Que Cuente Diez
DYEAR=2009
DGENRE=Rock
TTITLE0=Antes De Que Cuente Diez
TTITLE1=Me Acordé De Ti
TTITLE2=Tarde O Temprano
TTITLE3=Catorce Vidas Son Dos Gatos
TTITLE4=Todo A Cien
TTITLE5=Los Huesos De Los Besos
TTITLE6=Que Me Arrastre El Viento
TTITLE7=QuéNecesario Es El Rock&Roll
TTITLE8=Conozco Un Lugar
TTITLE9=La Cuisine De Bernard
EXTD=
EXTT0=
EXTT1=
EXTT2=
EXTT3=
EXTT4=
EXTT5=
EXTT6=
EXTT7=
EXTT8=
EXTT9=
PLAYORDER=
